# xmcd
# 
# Track frame offsets:
#     150
#     11109
#     23786
#     33225
#     44897
#     56870
#     68675
#     77726
#     88307
#     99410
#     111839
#     122802
#     132924
#     144491
#     153940
#     164250
#     172800
#     184519
#     196905
#     206895
#     216948
#     226417
#     239407
#     249209
#     259842
# 
# Disc length: 3594
# 
# Revision: 0
# Processed by: cddbd v1.5.2PL0 Copyright (c) Steve Scherf et al.
# Submitted via: fre:ac v1.0.17
# 
DISCID=610e0819
DTITLE=George Jones - 101 - White Lightning: The Best of George Jones [CDTwo)
DYEAR=2014
DGENRE=Country
TTITLE0=Tender Years
TTITLE1=There'll Be No Teardrops Tonught
TTITLE2=Big Harlan Taylor
TTITLE3=Sparkling Brown Eyes
TTITLE4=Out Of Control
TTITLE5=Heartaches By The Number
TTITLE6=Poor Man's Riches
TTITLE7=Hey, Good Lookin'
TTITLE8=Accidentally On Purpose
TTITLE9=Howlin' At The Moon
TTITLE10=I Can't Help It (If I'm Still In Love With You)
TTITLE11=Settin' The Woods On Fire
TTITLE12=One Is A Lonely Number
TTITLE13=Maybe Little Baby
TTITLE14=Run Boy
TTITLE15=I'm A One Woman Man
TTITLE16=Settle Down
TTITLE17=Heartbroken Me
TTITLE18=Rain Rain
TTITLE19=I've Got Five Dollars And It's Saturday Night
TTITLE20=Cause I Love You
TTITLE21=I Love You Because
TTITLE22=If You've Got The Money (I've Got The Time)
TTITLE23=Talk To Me Lonesome Heart
TTITLE24=I'll Be There (If You Ever Want Me)
EXTD=
EXTT0=
EXTT1=
EXTT2=
EXTT3=
EXTT4=
EXTT5=
EXTT6=
EXTT7=
EXTT8=
EXTT9=
EXTT10=
EXTT11=
EXTT12=
EXTT13=
EXTT14=
EXTT15=
EXTT16=
EXTT17=
EXTT18=
EXTT19=
EXTT20=
EXTT21=
EXTT22=
EXTT23=
EXTT24=
PLAYORDER=
